# xmcd CD database file
#
# Track frame offsets:
#	150
#	8462
#	29672
#	39402
#	50932
#	63065
#	74290
#	89210
#	105835
#	109467
#	123902
#	137148
#	148596
#	168258
#	180023
#	191026
#	215776
#	229441
#	241038
#	248686
#	276193
#	283959
#	294353
#	307956
#	319581
#
# Disc length: 4591 seconds
#
# Revision: 0
# Processed by: cddbd v1.5.2PL0 Copyright (c) Steve Scherf et al.
# Submitted via: CDex 1.70beta2
#
DISCID=6f11ed19
DTITLE=Armstrong Brubeck - The Real Ambassadors
DYEAR=1961
DGENRE=Jazz
TTITLE0=Everybody's Comin'
TTITLE1=Cultural Exchange
TTITLE2=Good Reviews
TTITLE3=Remember Who You Are
TTITLE4=My One Bad Habit
TTITLE5=Lonesome
TTITLE6=Summer Song
TTITLE7=King For A Day
TTITLE8=Blow Satchmo
TTITLE9=The Real Ambassador
TTITLE10=Nomad
TTITLE11=In The Lurch
TTITLE12=One Moment Worth Years
TTITLE13=You Swing Baby (The Duke)
TTITLE14=Summer Song
TTITLE15=They Say I Look Like God
TTITLE16=I Didn't Know Until You Told Me
TTITLE17=Since Love Had Its Way
TTITLE18=Easy As You Go
TTITLE19=Swing Bells Finale
TTITLE20=Easy As You Go
TTITLE21=Take Five
TTITLE22=In Your Own Sweet Way
TTITLE23=Oh, So Blue
TTITLE24=Lord, Lord
EXTD=YEAR: 1961
EXTT0=
EXTT1=
EXTT2=
EXTT3=
EXTT4=
EXTT5=
EXTT6=
EXTT7=
EXTT8=
EXTT9=
EXTT10=
EXTT11=
EXTT12=
EXTT13=
EXTT14=
EXTT15=
EXTT16=
EXTT17=
EXTT18=
EXTT19=
EXTT20=
EXTT21=
EXTT22=
EXTT23=
EXTT24=
PLAYORDER=
